# xmcd
#
# Track frame offsets:
#	150
#	12583
#	26895
#	38294
#	54340
#	64038
#	66414
#	76592
#	91123
#	105110
#	118932
#	137997
#	147080
#	159701
#	169091
#	179665
#	190913
#	203775
#	220971
#	234164
#	246450
#	257200
#	270761
#	282593
#	295925
#	306471
#	321890
#	337097
#
# Disc length: 4579 seconds
#
# Revision: 1
# Processed by: cddbd v1.5.1PL0 Copyright (c) Steve Scherf et al.
# Submitted via: audiograbber 1.83.01
#
DISCID=a211e11c
DTITLE=Rolling Stones - DEFINITIVE DEMOS - 1963-1966
DYEAR=1900
DGENRE=
TTITLE0=Diddley Daddy
TTITLE1=Road Runner
TTITLE2=Bright Lights-Big City
TTITLE3=Baby, What'S Wrong
TTITLE4=I Want To Be Loved
TTITLE5=Snap,Crackle, Pop
TTITLE6=I'D Much Rather Be With The Boys
TTITLE7=And Mr Spector And Mr Pitney Came Too
TTITLE8=Andrew'S Blues
TTITLE9=Hi-Heel Sneakers
TTITLE10=Stewed And Keefed
TTITLE11=Tell Me Baby(How Many More Times)
TTITLE12=Down In The Bottom
TTITLE13=Don'T Loe Top Me
TTITLE14=As Time Goes By
TTITLE15=Some Things Just Stick In Your Mind
TTITLE16=Each And Every Day Of The Year
TTITLE17=Heart Of Stone
TTITLE18=Walkin Thru The Sleepy City
TTITLE19=We'Re Wastin' Time
TTITLE20=Try A Little Harder
TTITLE21=Everybody Needs Somebody To Love
TTITLE22=When Blue Turns To Grey
TTITLE23=I'Ve Been Loveing You Too Long
TTITLE24=Looking Tired
TTITLE25=Out Of Time
TTITLE26=Can'T Belive
TTITLE27=If You Let Me
EXTD=
EXTT0=
EXTT1=
EXTT2=
EXTT3=
EXTT4=
EXTT5=
EXTT6=
EXTT7=
EXTT8=
EXTT9=
EXTT10=
EXTT11=
EXTT12=
EXTT13=
EXTT14=
EXTT15=
EXTT16=
EXTT17=
EXTT18=
EXTT19=
EXTT20=
EXTT21=
EXTT22=
EXTT23=
EXTT24=
EXTT25=
EXTT26=
EXTT27=
PLAYORDER=
